<?xml version="1.0" encoding="utf-8"?>
<!-- Generator: Adobe Illustrator 26.4.1, SVG Export Plug-In . SVG Version: 6.00 Build 0)  -->
<svg version="1.1" id="Layer_1" xmlns="http://www.w3.org/2000/svg" xmlns:xlink="http://www.w3.org/1999/xlink" x="0px" y="0px"
	 viewBox="0 0 1390 422" style="enable-background:new 0 0 1390 422;" xml:space="preserve">
<style type="text/css">
	.st0{fill:#DB4B55;}
	.st1{fill:#FFFFFF;}
	.st2{fill:#5AB0D0;}
	.st3{fill:#C15E6E;}
	.st4{fill:#A87386;}
	.st5{fill:#8E879F;}
	.st6{fill:#759CB7;}
	.st7{fill:#5A5252;}
</style>
<path class="st0" d="M283.2,113.8c-21-19.9-48.1-30.1-76.9-30.3c-74.1-0.6-127.5,56.5-118.5,131c8,67.1,70.1,105.9,134.5,97.1
	c23.7-3.2,44.1-13.1,61.2-29.5c0.2-0.2,0.5-0.2,0.7,0l11.1,11.4c0.3,0.3,0.3,0.6,0,0.9c-16.6,17.5-39.9,29.2-63.7,33.5
	c-58.1,10.6-114.6-9.9-146-61.2c-14.8-24.1-19.6-53.2-17.3-81.5c6.9-85.4,86.3-132.1,166.1-115.9c23.3,4.7,44.3,15.2,60.9,32.4
	c0.2,0.3,0.2,0.5,0,0.8l-11,11.3C284,114.1,283.5,114.1,283.2,113.8z"/>
<g id="XMLID_00000166655182380565191250000014222623185635757469_">
	<g>
		<path class="st1" d="M1280.6,166.6c19.2,71.4-28.3,141.5-102.3,145.9c-0.3,0-0.5-0.1-0.5-0.5l-0.3-65.9c0-0.4-0.2-0.6-0.6-0.6
			h-16.5c-0.8,0-1.1,0.4-1.3,1.1v65.6c0,0.3-0.1,0.4-0.4,0.4c-5.9-0.6-12.2-0.9-17.7-2.2c-56-12.9-92.2-61.9-88.8-119.4
			c4.3-71.5,68.5-117.4,137.8-105.6C1233,92.7,1269.1,124,1280.6,166.6z"/>
		<path class="st2" d="M1303,179.7c10,78.8-44.8,146.1-124.3,150.4c-0.2,0-0.4,0.2-0.4,0.4l0.1,47.7c0,0.4-0.3,0.8-0.8,0.8h-18
			c-0.4,0-0.8-0.3-0.8-0.8v-47.5c0.2-0.3-0.1-0.6-0.4-0.6c-6.6-0.6-13.7-1.2-19.6-2.3c-49.6-9.4-90.3-46.9-102.1-96
			c-2.8-11.9-4.1-24.6-3.7-38c1.3-43.9,21.8-81.3,58.5-105.5c42.7-28.1,100.1-29,145-5.8C1273,101.4,1297.9,139.3,1303,179.7z
			 M1178.3,312.5c74-4.4,121.5-74.5,102.3-145.9c-11.5-42.6-47.6-73.9-90.6-81.2c-69.3-11.8-133.5,34.1-137.8,105.6
			c-3.4,57.5,32.8,106.5,88.8,119.4c5.5,1.3,11.8,1.6,17.7,2.2c0.3,0,0.4-0.1,0.4-0.4v-65.6c0.2-0.7,0.5-1.1,1.3-1.1h16.5
			c0.4,0,0.6,0.2,0.6,0.6l0.3,65.9C1177.8,312.4,1178,312.5,1178.3,312.5z"/>
	</g>
</g>
<path class="st3" d="M378.8,243.8v84.5c0,0.3-0.2,0.5-0.5,0.5h-18c-0.3,0-0.5-0.2-0.5-0.5V227c0-0.3,0.2-0.5,0.5-0.5
	c31.6,0.1,63.2,0.1,95,0c24.5,0,52.9-6,69.3-26c13.1-16,16.4-37.6,13.3-57.7c-6.4-41.9-42.3-57.2-80.5-57.5
	C425,85.1,392.6,85,360.2,85c-0.3,0-0.5-0.2-0.5-0.5V68.3c0-0.3,0.2-0.5,0.5-0.5c32.1,0,64.2,0.1,96.2,0.2
	c51.4,0.3,98.3,24.2,101.6,82.5c2.3,41.3-19.5,76.2-60.2,86.6c-0.4,0.1-0.5,0.3-0.2,0.6l64.5,90.5c0.2,0.3,0,0.7-0.3,0.7h-20.3
	c-0.4,0-0.6-0.1-0.8-0.4L479,241.9c-0.2-0.3-0.5-0.4-0.9-0.4c-7.9,1.1-13.7,1.7-17.4,1.7c-27.1,0-54.3,0-81.4,0
	C378.9,243.3,378.8,243.4,378.8,243.8z"/>
<path class="st4" d="M628.9,67.8H647c0.2,0,0.4,0.2,0.4,0.4v260.1c0,0.2-0.2,0.4-0.4,0.4h-18.1c-0.2,0-0.4-0.2-0.4-0.4V68.2
	C628.5,67.9,628.7,67.8,628.9,67.8z"/>
<path class="st5" d="M787.9,85h-93.2c-0.2,0-0.3-0.1-0.3-0.3l0.1-16.6c0-0.2,0.2-0.3,0.3-0.3h206c0.2,0,0.3,0.1,0.3,0.3v16.6
	c0,0.2-0.2,0.3-0.3,0.3h-93.3c-0.2,0-0.3,0.1-0.3,0.3v243.1c0,0.2-0.2,0.3-0.3,0.3h-18.3c-0.2,0-0.3-0.2-0.3-0.3V85.3
	C788.2,85.1,788.1,85,787.9,85z"/>
<path class="st6" d="M948.6,67.8h17.9c0.3,0,0.6,0.3,0.6,0.6v259.9c0,0.3-0.3,0.6-0.6,0.6h-17.9c-0.3,0-0.6-0.3-0.6-0.6v-260
	C948,68,948.3,67.8,948.6,67.8z"/>
<path class="st7" d="M1116.7,238.5c-10.2,0.3-22.3,0.7-25.4-11.6c-0.4-1.7-0.5-4.9-0.1-9.6c1.1-16.9,2.2-33.9,3.2-50.8
	c1-17.7,15.2-31,32.8-31.3c7.4-0.1,12.1,2.7,18.4,6.7c0.2,0.1,0.5,0.2,0.7,0.1c15.1-5.9,30.3-5.9,45.4,0c0.2,0.1,0.5,0.1,0.7-0.1
	c1.7-1.1,3.6-2.5,5.1-3.3c20.8-11,45.1,5.6,46.2,28.4c0.8,17.4,2.1,34.9,3.3,52.3c0.2,3.6,0.1,6.3-0.5,8.2
	c-3.5,11.9-15.1,11.4-25.1,11c-0.3,0-0.5-0.1-0.6-0.4l-22.8-36.4c-0.1-0.2-0.3-0.3-0.5-0.3h-56.8c-0.1,0-0.3,0.1-0.4,0.2l-22.9,36.5
	C1117.1,238.4,1117,238.5,1116.7,238.5z M1222,160.8c0-3.9-3.2-7.1-7.1-7.1s-7.1,3.2-7.1,7.1s3.2,7.1,7.1,7.1
	C1218.8,167.9,1222,164.7,1222,160.8z M1113.1,179.1c0.2,0,0.3,0.1,0.3,0.3v9.5c0,0.2,0.1,0.3,0.3,0.3h10c0.2,0,0.3-0.1,0.3-0.3
	v-9.4c0-0.2,0.1-0.3,0.3-0.3h9.3c0.2,0,0.3-0.1,0.3-0.3l-0.1-9.9c0-0.2-0.1-0.3-0.3-0.3l-9.2-0.1c-0.2,0-0.3-0.1-0.3-0.3l-0.1-9.3
	c0-0.2-0.1-0.3-0.3-0.3h-9.8c-0.2,0-0.3,0.1-0.3,0.3v9.4c0,0.2-0.1,0.3-0.3,0.3h-9.5c-0.2,0-0.3,0.1-0.3,0.3l0.1,9.9
	c0,0.2,0.1,0.3,0.3,0.3L1113.1,179.1z M1210.5,172.4c0-3.9-3.2-7.1-7.1-7.1s-7.1,3.2-7.1,7.1c0,3.9,3.2,7.1,7.1,7.1
	S1210.5,176.3,1210.5,172.4z M1233.6,172.3c0-3.9-3.2-7.1-7.1-7.1s-7.1,3.2-7.1,7.1c0,3.9,3.2,7.1,7.1,7.1
	C1230.4,179.5,1233.6,176.3,1233.6,172.3z M1222,183.9c0-3.9-3.2-7.1-7.1-7.1s-7.1,3.2-7.1,7.1s3.2,7.1,7.1,7.1
	S1222,187.8,1222,183.9z"/>
</svg>
