<?xml version="1.0" encoding="utf-8"?>
<!-- Generator: Adobe Illustrator 26.4.1, SVG Export Plug-In . SVG Version: 6.00 Build 0)  -->
<svg version="1.1" id="Layer_1" xmlns="http://www.w3.org/2000/svg" xmlns:xlink="http://www.w3.org/1999/xlink" x="0px" y="0px"
	 viewBox="0 0 1390 422" style="enable-background:new 0 0 1390 422;" xml:space="preserve">
<style type="text/css">
	.st0{fill:#FFFFFF;}
	.st1{fill:#5A5252;}
	.st2{fill:#DB4B55;}
	.st3{fill:#5AB0D0;}
	.st4{fill:#C15E6E;}
	.st5{fill:#A87386;}
	.st6{fill:#8E879F;}
	.st7{fill:#759CB7;}
</style>
<path class="st0" d="M0-422h1390v844H0V-422z M206.2,83.5c28.8,0.2,56,10.5,76.9,30.3c0.3,0.3,0.8,0.3,1.1,0l11-11.3
	c0.2-0.2,0.2-0.5,0-0.8c-16.6-17.1-37.6-27.6-60.9-32.4C154.5,53.1,75.1,99.8,68.2,185.2c-2.3,28.3,2.5,57.4,17.3,81.5
	c31.4,51.3,88,71.8,146,61.2c23.8-4.3,47-16,63.7-33.5c0.3-0.3,0.3-0.6,0-0.9l-11.1-11.4c-0.2-0.2-0.5-0.2-0.7,0
	c-17.1,16.5-37.5,26.3-61.2,29.5c-64.5,8.8-126.5-30.1-134.5-97.1C78.8,140,132.1,82.9,206.2,83.5z M1159,330.7v47.5
	c0,0.4,0.3,0.8,0.8,0.8h18c0.4,0,0.8-0.3,0.8-0.8l-0.1-47.7c0-0.2,0.2-0.4,0.4-0.4c79.5-4.3,134.2-71.6,124.3-150.4
	c-5.1-40.5-30-78.4-66.5-97.2c-44.9-23.2-102.4-22.3-145,5.8c-36.6,24.2-57.1,61.6-58.5,105.5c-0.4,13.4,0.8,26.1,3.7,38
	c11.8,49.1,52.5,86.5,102.1,96c5.9,1.1,13,1.7,19.6,2.3C1158.7,330.1,1159,330.4,1159,330.7z M379.2,243.3c27.1,0,54.3-0.1,81.4,0
	c3.7,0,9.5-0.6,17.4-1.7c0.4,0,0.7,0.1,0.9,0.4l61.7,86.4c0.2,0.3,0.5,0.4,0.8,0.4h20.3c0.3,0,0.5-0.4,0.3-0.7l-64.5-90.5
	c-0.2-0.3-0.2-0.5,0.2-0.6c40.7-10.3,62.5-45.2,60.2-86.6c-3.2-58.3-50.1-82.2-101.6-82.5c-32-0.2-64.1-0.3-96.2-0.2
	c-0.3,0-0.5,0.2-0.5,0.5v16.2c0,0.3,0.2,0.5,0.5,0.5c32.4,0,64.8,0.1,97.2,0.3c38.2,0.3,74,15.6,80.5,57.5
	c3.1,20.1-0.2,41.7-13.3,57.7c-16.4,20-44.8,26-69.3,26c-31.7,0-63.4,0-95,0c-0.3,0-0.5,0.2-0.5,0.5v101.2c0,0.3,0.2,0.5,0.5,0.5h18
	c0.3,0,0.5-0.2,0.5-0.5v-84.5C378.8,243.4,378.9,243.3,379.2,243.3z M647.5,68.2c0-0.2-0.2-0.4-0.4-0.4H629c-0.2,0-0.4,0.2-0.4,0.4
	v260.1c0,0.2,0.2,0.4,0.4,0.4h18.1c0.2,0,0.4-0.2,0.4-0.4V68.2z M787.9,85c0.2,0,0.3,0.1,0.3,0.3v243.1c0,0.2,0.2,0.3,0.3,0.3h18.3
	c0.2,0,0.3-0.2,0.3-0.3V85.3c0-0.2,0.2-0.3,0.3-0.3h93.3c0.2,0,0.3-0.1,0.3-0.3V68.1c0-0.2-0.2-0.3-0.3-0.3h-206
	c-0.2,0-0.3,0.1-0.3,0.3l-0.1,16.6c0,0.2,0.1,0.3,0.3,0.3H787.9z M967,68.3c0-0.3-0.3-0.6-0.6-0.6h-17.9c-0.3,0-0.6,0.3-0.6,0.6
	v259.9c0,0.3,0.3,0.6,0.6,0.6h17.9c0.3,0,0.6-0.3,0.6-0.6V68.3z"/>
<path class="st1" d="M1116.7,238.5c-10.2,0.3-22.3,0.7-25.4-11.6c-0.4-1.7-0.5-4.9-0.1-9.6c1.1-16.9,2.2-33.9,3.2-50.8
	c1-17.7,15.2-31,32.8-31.3c7.4-0.1,12.1,2.7,18.4,6.7c0.2,0.1,0.5,0.2,0.7,0.1c15.1-5.9,30.3-5.9,45.4,0c0.2,0.1,0.5,0.1,0.7-0.1
	c1.7-1.1,3.6-2.5,5.1-3.3c20.8-11,45.1,5.6,46.2,28.4c0.8,17.4,2.1,34.9,3.3,52.3c0.2,3.6,0.1,6.3-0.5,8.2
	c-3.5,11.9-15.1,11.4-25.1,11c-0.3,0-0.5-0.1-0.6-0.4l-22.8-36.4c-0.1-0.2-0.3-0.3-0.5-0.3h-56.8c-0.1,0-0.3,0.1-0.4,0.2l-22.9,36.5
	C1117.1,238.4,1117,238.5,1116.7,238.5z M1222,160.8c0-3.9-3.2-7.1-7.1-7.1s-7.1,3.2-7.1,7.1s3.2,7.1,7.1,7.1
	C1218.8,167.9,1222,164.7,1222,160.8z M1113.1,179.1c0.2,0,0.3,0.1,0.3,0.3v9.5c0,0.2,0.1,0.3,0.3,0.3h10c0.2,0,0.3-0.1,0.3-0.3
	v-9.4c0-0.2,0.1-0.3,0.3-0.3h9.3c0.2,0,0.3-0.1,0.3-0.3l-0.1-9.9c0-0.2-0.1-0.3-0.3-0.3l-9.2-0.1c-0.2,0-0.3-0.1-0.3-0.3l-0.1-9.3
	c0-0.2-0.1-0.3-0.3-0.3h-9.8c-0.2,0-0.3,0.1-0.3,0.3v9.4c0,0.2-0.1,0.3-0.3,0.3h-9.5c-0.2,0-0.3,0.1-0.3,0.3l0.1,9.9
	c0,0.2,0.1,0.3,0.3,0.3L1113.1,179.1z M1210.5,172.4c0-3.9-3.2-7.1-7.1-7.1s-7.1,3.2-7.1,7.1c0,3.9,3.2,7.1,7.1,7.1
	S1210.5,176.3,1210.5,172.4z M1233.6,172.3c0-3.9-3.2-7.1-7.1-7.1s-7.1,3.2-7.1,7.1c0,3.9,3.2,7.1,7.1,7.1
	C1230.4,179.5,1233.6,176.3,1233.6,172.3z M1222,183.9c0-3.9-3.2-7.1-7.1-7.1s-7.1,3.2-7.1,7.1s3.2,7.1,7.1,7.1
	S1222,187.8,1222,183.9z"/>
<circle class="st0" cx="746.6" cy="-206.6" r="9.4"/>
<path class="st0" d="M612.1-182.4l-12.4,0.1c-0.2,0-0.4-0.2-0.4-0.4l-0.1-13.1c0-0.2,0.2-0.4,0.4-0.4h12.5c0.2,0,0.4-0.2,0.4-0.4
	l-0.1-12.5c0-0.2,0.2-0.4,0.4-0.4h13c0.2,0,0.4,0.2,0.4,0.4l0.2,12.3c0,0.2,0.2,0.4,0.4,0.4l12.2,0.2c0.2,0,0.4,0.2,0.4,0.4
	l0.1,13.2c0,0.2-0.2,0.4-0.4,0.4h-12.3c-0.2,0-0.4,0.2-0.4,0.4v12.5c0,0.2-0.2,0.4-0.4,0.4h-13.2c-0.2,0-0.4-0.2-0.4-0.4v-12.6
	C612.5-182.2,612.3-182.4,612.1-182.4z"/>
<circle class="st0" cx="731.3" cy="-191.3" r="9.4"/>
<circle class="st0" cx="761.9" cy="-191.4" r="9.5"/>
<circle class="st0" cx="746.6" cy="-176.1" r="9.4"/>
<path class="st2" d="M283.2,113.8c-21-19.9-48.1-30.1-76.9-30.3c-74.1-0.6-127.5,56.5-118.5,131c8,67.1,70.1,105.9,134.5,97.1
	c23.7-3.2,44.1-13.1,61.2-29.5c0.2-0.2,0.5-0.2,0.7,0l11.1,11.4c0.3,0.3,0.3,0.6,0,0.9c-16.6,17.5-39.9,29.2-63.7,33.5
	c-58.1,10.6-114.6-9.9-146-61.2c-14.8-24.1-19.6-53.2-17.3-81.5c6.9-85.4,86.3-132.1,166.1-115.9c23.3,4.7,44.3,15.2,60.9,32.4
	c0.2,0.3,0.2,0.5,0,0.8l-11,11.3C284,114.1,283.5,114.1,283.2,113.8z"/>
<path class="st3" d="M1158.4,330.1c-6.6-0.6-13.7-1.2-19.6-2.3c-49.6-9.4-90.3-46.9-102.1-96c-2.8-11.9-4.1-24.6-3.7-38
	c1.3-43.9,21.8-81.3,58.5-105.5c42.7-28.1,100.1-29,145-5.8c36.5,18.9,61.4,56.8,66.5,97.2c10,78.8-44.8,146.1-124.3,150.4
	c-0.2,0-0.4,0.2-0.4,0.4l0.1,47.7c0,0.4-0.3,0.8-0.8,0.8h-18c-0.4,0-0.8-0.3-0.8-0.8v-47.5C1159,330.4,1158.7,330.1,1158.4,330.1z
	 M1160.4,245.5h16.5c0.4,0,0.6,0.2,0.6,0.6l0.3,65.9c0,0.4,0.2,0.5,0.5,0.5c74-4.4,121.5-74.5,102.3-145.9
	c-11.5-42.6-47.6-73.9-90.6-81.2c-69.3-11.8-133.5,34.1-137.8,105.6c-3.4,57.5,32.8,106.5,88.8,119.4c5.5,1.3,11.8,1.6,17.7,2.2
	c0.3,0,0.4-0.1,0.4-0.4v-65.6C1159.3,245.9,1159.6,245.5,1160.4,245.5z"/>
<path class="st4" d="M378.8,243.8v84.5c0,0.3-0.2,0.5-0.5,0.5h-18c-0.3,0-0.5-0.2-0.5-0.5V227c0-0.3,0.2-0.5,0.5-0.5
	c31.6,0.1,63.2,0.1,95,0c24.5,0,52.9-6,69.3-26c13.1-16,16.4-37.6,13.3-57.7c-6.4-41.9-42.3-57.2-80.5-57.5
	C425,85.1,392.6,85,360.2,85c-0.3,0-0.5-0.2-0.5-0.5V68.3c0-0.3,0.2-0.5,0.5-0.5c32.1,0,64.2,0.1,96.2,0.2
	c51.4,0.3,98.3,24.2,101.6,82.5c2.3,41.3-19.5,76.2-60.2,86.6c-0.4,0.1-0.5,0.3-0.2,0.6l64.5,90.5c0.2,0.3,0,0.7-0.3,0.7h-20.3
	c-0.4,0-0.6-0.1-0.8-0.4L479,241.9c-0.2-0.3-0.5-0.4-0.9-0.4c-7.9,1.1-13.7,1.7-17.4,1.7c-27.1,0-54.3,0-81.4,0
	C378.9,243.3,378.8,243.4,378.8,243.8z"/>
<path class="st5" d="M628.9,67.8H647c0.2,0,0.4,0.2,0.4,0.4v260.1c0,0.2-0.2,0.4-0.4,0.4h-18.1c-0.2,0-0.4-0.2-0.4-0.4V68.2
	C628.5,67.9,628.7,67.8,628.9,67.8z"/>
<path class="st6" d="M787.9,85h-93.2c-0.2,0-0.3-0.1-0.3-0.3l0.1-16.6c0-0.2,0.2-0.3,0.3-0.3h206c0.2,0,0.3,0.1,0.3,0.3v16.6
	c0,0.2-0.2,0.3-0.3,0.3h-93.3c-0.2,0-0.3,0.1-0.3,0.3v243.1c0,0.2-0.2,0.3-0.3,0.3h-18.3c-0.2,0-0.3-0.2-0.3-0.3V85.3
	C788.2,85.1,788.1,85,787.9,85z"/>
<path class="st7" d="M948.6,67.8h17.9c0.3,0,0.6,0.3,0.6,0.6v259.9c0,0.3-0.3,0.6-0.6,0.6h-17.9c-0.3,0-0.6-0.3-0.6-0.6v-260
	C948,68,948.3,67.8,948.6,67.8z"/>
</svg>
