<?xml version="1.0" encoding="utf-8"?>
<!-- Generator: Adobe Illustrator 26.4.1, SVG Export Plug-In . SVG Version: 6.00 Build 0)  -->
<svg version="1.1" id="Layer_1" xmlns="http://www.w3.org/2000/svg" xmlns:xlink="http://www.w3.org/1999/xlink" x="0px" y="0px"
	 viewBox="0 0 1344 793" style="enable-background:new 0 0 1344 793;" xml:space="preserve">
<style type="text/css">
	.st0{fill:none;stroke:#EDA5AA;stroke-width:2;}
	.st1{fill:none;stroke:#ADD8E8;stroke-width:2;}
	.st2{fill:none;stroke:#DDB2BA;stroke-width:2;}
	.st3{fill:none;stroke:#CDBEC9;stroke-width:2;}
	.st4{fill:none;stroke:#BECBD9;stroke-width:2;}
	.st5{fill:#DB4B55;}
	.st6{fill:#5AB0D0;}
	.st7{fill:#BB6474;}
	.st8{fill:#9B7D93;}
	.st9{fill:#7C97B2;}
	.st10{fill:#FFFFFF;}
	.st11{fill:none;stroke:#ADA9A9;stroke-width:2;}
	.st12{fill:#726767;}
</style>
<g>
	<path vector-effect="non-scaling-stroke" class="st0" d="M275.8,273.6c22.5,3.5,42,13.2,58.6,28.9c0.3,0.3,0.5,0.3,0.8,0l11.1-11.5
		c0.2-0.2,0.2-0.6,0-0.8c-39.2-40.2-109.2-45.8-158.1-20.5c-94.4,48.9-92.6,188.9,2.8,235.5c48.1,23.5,117.3,18.2,155.2-22.5
		c0.2-0.3,0.2-0.5,0-0.8l-11-11.3c-0.2-0.2-0.6-0.2-0.9,0c-17.9,17-38.9,27-63,29.8c-63.3,7.5-123.9-30.1-132.7-96.3
		C128,322.2,195,260.9,275.8,273.6"/>
	<path vector-effect="non-scaling-stroke" class="st1" d="M971.7,405.6c7,57.3,50.8,101.5,107.4,111.1c5.5,0.9,11.2,1.7,17,2.1
		c0.3,0,0.5,0.2,0.5,0.5v47.5c0,0.4,0.3,0.8,0.8,0.8h18c0.3,0,0.5-0.2,0.5-0.5l0-47.3c0-0.7,0.6-1.3,1.3-1.3
		c54.9-2.9,101.7-37.8,118.5-90.3c12.6-39.2,6.4-84.5-17.5-118.1c-45.9-64.4-138.7-72.7-199.2-25.9
		C981.5,313.1,966,359.1,971.7,405.6"/>
	<path vector-effect="non-scaling-stroke" class="st2" d="M530.2,430.5l61.7,86.4c0.2,0.3,0.5,0.4,0.8,0.4h20.2
		c0.5,0,0.7-0.2,0.3-0.7l-64.5-90.5c-0.2-0.2,0-0.5,0.2-0.6c46.6-12.3,67.1-54.9,58.7-100.3c-9.1-49.3-55.1-68.6-100-68.9
		c-14-0.1-46.1-0.1-96.2,0c-0.3,0-0.5,0.2-0.5,0.5V273c0,0.3,0.2,0.5,0.5,0.5c31.5,0,63,0,94.5,0.1c21.5,0.1,45.4,4.7,61.7,18
		c20.3,16.5,25.6,44.2,21.1,69.2c-4.7,25.6-22.9,42.9-47.6,49.7c-11.7,3.2-24.1,4.8-37,4.7c-30.9-0.1-61.8-0.2-92.7-0.2
		c-0.4,0-0.5,0.2-0.5,0.5v101.2c0,0.3,0.2,0.5,0.5,0.5h18c0.3,0,0.5-0.2,0.5-0.5l0-84.3c0-0.4,0.3-0.7,0.7-0.7c26.9,0,53.9,0,81,0
		c3.9,0,9.9-0.6,17.8-1.6C529.7,430.1,529.9,430.2,530.2,430.5"/>
	<path vector-effect="non-scaling-stroke" class="st3" d="M698.6,256.7c0-0.2-0.2-0.4-0.4-0.4H680c-0.2,0-0.4,0.2-0.4,0.4v260.1
		c0,0.2,0.2,0.4,0.4,0.4h18.1c0.2,0,0.4-0.2,0.4-0.4V256.7"/>
	<path vector-effect="non-scaling-stroke" class="st4" d="M839,273.5c0.2,0,0.4,0.2,0.4,0.4v243c0,0.2,0.2,0.4,0.4,0.4H858
		c0.2,0,0.4-0.2,0.4-0.4l0-243c0-0.2,0.2-0.4,0.4-0.4H952c0.2,0,0.4-0.2,0.4-0.4v-16.5c0-0.2-0.2-0.4-0.4-0.4H746
		c-0.2,0-0.4,0.2-0.4,0.4l-0.1,16.5c0,0.2,0.2,0.4,0.4,0.4H839"/>
	<path vector-effect="non-scaling-stroke" class="st1" d="M1115.1,434.5v66.2c0,0.2,0.2,0.4,0.4,0.4
		c70.9-4.2,118.3-68.7,104.8-137.6c-7.8-39.9-38-74.1-77-86c-77.7-23.6-155.8,29.2-153.6,113.2c1.6,59.2,47.2,107.1,106.5,110.3
		c0.4,0,0.6-0.2,0.6-0.6v-66c0-0.3,0.2-0.5,0.5-0.5h17.2C1114.9,434,1115.1,434.2,1115.1,434.5"/>
</g>
<path class="st5" d="M275.8,273.6C195,260.9,128,322.2,138.8,404.1c8.8,66.2,69.4,103.8,132.7,96.3c24.1-2.8,45.1-12.8,63-29.8
	c0.2-0.2,0.6-0.2,0.9,0l11,11.3c0.2,0.2,0.3,0.5,0,0.8c-38,40.7-107.1,45.9-155.2,22.5c-95.4-46.6-97.2-186.6-2.8-235.5
	c48.8-25.3,118.8-19.7,158.1,20.5c0.2,0.2,0.2,0.6,0,0.8l-11.1,11.5c-0.3,0.3-0.5,0.3-0.8,0C317.8,286.8,298.2,277.1,275.8,273.6z"
	/>
<path class="st6" d="M1079.1,516.7c-56.6-9.6-100.3-53.8-107.4-111.1c-5.7-46.5,9.8-92.5,47.1-121.4
	c60.5-46.9,153.4-38.5,199.2,25.9c23.9,33.6,30.1,78.9,17.5,118.1c-16.8,52.5-63.6,87.4-118.5,90.3c-0.7,0-1.3,0.6-1.3,1.3l0,47.3
	c0,0.3-0.2,0.5-0.5,0.5h-18c-0.4,0-0.8-0.3-0.8-0.8v-47.5c0-0.3-0.2-0.5-0.5-0.5C1090.3,518.3,1084.7,517.6,1079.1,516.7z
	 M1115.1,434.5v66.2c0,0.2,0.2,0.4,0.4,0.4c70.9-4.2,118.3-68.7,104.8-137.6c-7.8-39.9-38-74.1-77-86
	c-77.7-23.6-155.8,29.2-153.6,113.2c1.6,59.2,47.2,107.1,106.5,110.3c0.4,0,0.6-0.2,0.6-0.6v-66c0-0.3,0.2-0.5,0.5-0.5h17.2
	C1114.9,434,1115.1,434.2,1115.1,434.5z"/>
<path class="st7" d="M529.3,430.1c-7.9,1.1-13.9,1.6-17.8,1.6c-27,0-54,0.1-81,0c-0.4,0-0.7,0.3-0.7,0.7l0,84.3
	c0,0.3-0.2,0.5-0.5,0.5h-18c-0.3,0-0.5-0.2-0.5-0.5V415.5c0-0.4,0.2-0.5,0.5-0.5c30.9,0,61.8,0.1,92.7,0.2c12.9,0,25.3-1.5,37-4.7
	c24.7-6.8,42.9-24.1,47.6-49.7c4.6-25-0.7-52.7-21.1-69.2c-16.3-13.2-40.2-17.9-61.7-18c-31.5-0.1-63-0.1-94.5-0.1
	c-0.3,0-0.5-0.2-0.5-0.5v-16.2c0-0.3,0.2-0.5,0.5-0.5c50.1-0.1,82.2-0.1,96.2,0c44.9,0.3,90.9,19.6,100,68.9
	c8.4,45.4-12.1,88-58.7,100.3c-0.3,0.1-0.4,0.4-0.2,0.6l64.5,90.5c0.3,0.5,0.2,0.7-0.3,0.7h-20.2c-0.3,0-0.6-0.2-0.8-0.4l-61.7-86.4
	C529.9,430.2,529.7,430.1,529.3,430.1z"/>
<path class="st8" d="M680,256.3h18.1c0.2,0,0.4,0.2,0.4,0.4v260.1c0,0.2-0.2,0.4-0.4,0.4H680c-0.2,0-0.4-0.2-0.4-0.4V256.7
	C679.6,256.5,679.8,256.3,680,256.3z"/>
<path class="st9" d="M839,273.5h-93c-0.2,0-0.4-0.2-0.4-0.4l0.1-16.5c0-0.2,0.2-0.4,0.4-0.4h206c0.2,0,0.4,0.2,0.4,0.4v16.5
	c0,0.2-0.2,0.4-0.4,0.4h-93.2c-0.2,0-0.4,0.2-0.4,0.4l0,243c0,0.2-0.2,0.4-0.4,0.4h-18.3c-0.2,0-0.4-0.2-0.4-0.4v-243
	C839.3,273.7,839.2,273.5,839,273.5z"/>
<path class="st10" d="M1114.6,434h-17.2c-0.3,0-0.5,0.2-0.5,0.5v66c0,0.4-0.2,0.6-0.6,0.6c-59.3-3.2-104.9-51.1-106.5-110.3
	c-2.2-84,75.9-136.8,153.6-113.2c39,11.9,69.2,46,77,86c13.5,68.9-33.9,133.4-104.8,137.6c-0.2,0-0.4-0.1-0.4-0.4v-66.2
	C1115.1,434.2,1114.9,434,1114.6,434z"/>
<g>
	<path vector-effect="non-scaling-stroke" class="st11" d="M1029.2,407.4c2.9,12.1,15,12.1,25.2,11.5c0.2,0,0.4-0.1,0.5-0.3l22.6-36
		c0.1-0.2,0.3-0.3,0.5-0.3l56.1,0c0.3,0,0.5,0.1,0.6,0.4l22.6,35.9c0.1,0.2,0.4,0.3,0.6,0.4c10.2,0.3,21.4,0.9,24.8-10.9
		c0.6-2,0.7-4.9,0.5-8.7c-1.1-17.1-2.4-34.2-3.2-51.3c-1-21.9-24.1-38.2-44.5-28.6c-2.1,1-4.2,2.5-6.3,3.9c-0.2,0.1-0.5,0.2-0.7,0.1
		c-15.2-5.4-29.7-6-44.6-0.1c-0.4,0.2-0.9,0.1-1.3-0.2c-17.6-13.6-42.1-4.3-48.7,16c-0.8,2.5-1.4,6-1.7,10.5
		c-1,16.5-2.1,33-3.1,49.5C1028.8,403.1,1028.9,405.9,1029.2,407.4"/>
	<path vector-effect="non-scaling-stroke" class="st11" d="M1158.6,342c0-3.9-3.2-7-7-7s-7,3.2-7,7s3.2,7,7,7
		S1158.6,345.9,1158.6,342"/>
	<path vector-effect="non-scaling-stroke" class="st11" d="M1050.7,360.1c0.1,0,0.3,0.1,0.3,0.2l0.1,9.6c0,0.1,0.1,0.2,0.3,0.2h10
		c0.1,0,0.3-0.1,0.3-0.3l-0.1-9.4c0-0.1,0.1-0.3,0.3-0.3h9.3c0.1,0,0.3-0.1,0.3-0.3l0-9.9c0-0.1-0.1-0.3-0.3-0.3l-9.5-0.1
		c-0.1,0-0.2-0.1-0.2-0.2l-0.1-9.3c0-0.1-0.1-0.3-0.3-0.3h-9.7c-0.1,0-0.3,0.1-0.3,0.3v9.4c0,0.1-0.1,0.3-0.3,0.3h-9.5
		c-0.1,0-0.3,0.1-0.3,0.3l0.1,10c0,0.1,0.1,0.3,0.3,0.2L1050.7,360.1"/>
	<path vector-effect="non-scaling-stroke" class="st11" d="M1147.1,353.4c0-3.9-3.2-7.1-7.1-7.1c-3.9,0-7.1,3.2-7.1,7.1
		c0,3.9,3.2,7.1,7.1,7.1C1143.9,360.5,1147.1,357.3,1147.1,353.4"/>
	<path vector-effect="non-scaling-stroke" class="st11" d="M1170,353.4c0-3.9-3.2-7.1-7.1-7.1s-7.1,3.2-7.1,7.1
		c0,3.9,3.2,7.1,7.1,7.1S1170,357.3,1170,353.4"/>
	<path vector-effect="non-scaling-stroke" class="st11" d="M1158.5,364.9c0-3.9-3.2-7-7-7c-3.9,0-7,3.2-7,7s3.2,7,7,7
		C1155.4,371.9,1158.5,368.8,1158.5,364.9"/>
</g>
<path class="st12" d="M1054.4,418.9c-10.2,0.7-22.3,0.6-25.2-11.5c-0.4-1.5-0.4-4.3-0.2-8.3c1-16.5,2.1-33,3.1-49.5
	c0.3-4.5,0.8-8,1.7-10.5c6.7-20.3,31.2-29.6,48.7-16c0.4,0.3,0.9,0.4,1.3,0.2c15-5.9,29.5-5.4,44.6,0.1c0.2,0.1,0.5,0.1,0.7-0.1
	c2.1-1.4,4.2-2.9,6.3-3.9c20.4-9.6,43.5,6.7,44.5,28.6c0.8,17.1,2.1,34.2,3.2,51.3c0.2,3.8,0.1,6.8-0.5,8.7
	c-3.4,11.9-14.6,11.2-24.8,10.9c-0.3,0-0.5-0.1-0.6-0.4l-22.6-35.9c-0.1-0.2-0.4-0.4-0.6-0.4l-56.1,0c-0.2,0-0.4,0.1-0.5,0.3
	l-22.6,36C1054.8,418.8,1054.7,418.9,1054.4,418.9z M1158.6,342c0-3.9-3.2-7-7-7s-7,3.2-7,7s3.2,7,7,7S1158.6,345.9,1158.6,342z
	 M1050.7,360.1c0.1,0,0.3,0.1,0.3,0.2l0.1,9.6c0,0.1,0.1,0.2,0.3,0.2h10c0.1,0,0.3-0.1,0.3-0.3l-0.1-9.4c0-0.1,0.1-0.3,0.3-0.3h9.3
	c0.1,0,0.3-0.1,0.3-0.3l0-9.9c0-0.1-0.1-0.3-0.3-0.3l-9.5-0.1c-0.1,0-0.2-0.1-0.2-0.2l-0.1-9.3c0-0.1-0.1-0.3-0.3-0.3h-9.7
	c-0.1,0-0.3,0.1-0.3,0.3v9.4c0,0.1-0.1,0.3-0.3,0.3h-9.5c-0.1,0-0.3,0.1-0.3,0.3l0.1,10c0,0.1,0.1,0.3,0.3,0.2L1050.7,360.1z
	 M1147.1,353.4c0-3.9-3.2-7.1-7.1-7.1c-3.9,0-7.1,3.2-7.1,7.1c0,3.9,3.2,7.1,7.1,7.1C1143.9,360.5,1147.1,357.3,1147.1,353.4z
	 M1170,353.4c0-3.9-3.2-7.1-7.1-7.1s-7.1,3.2-7.1,7.1c0,3.9,3.2,7.1,7.1,7.1S1170,357.3,1170,353.4z M1158.5,364.9c0-3.9-3.2-7-7-7
	c-3.9,0-7,3.2-7,7s3.2,7,7,7C1155.4,371.9,1158.5,368.8,1158.5,364.9z"/>
<circle class="st10" cx="1151.5" cy="342" r="7"/>
<path class="st10" d="M1050.7,360.1l-9.3,0.2c-0.1,0-0.3-0.1-0.3-0.2l-0.1-10c0-0.1,0.1-0.3,0.3-0.3h9.5c0.1,0,0.3-0.1,0.3-0.3v-9.4
	c0-0.1,0.1-0.3,0.3-0.3h9.7c0.1,0,0.3,0.1,0.3,0.3l0.1,9.3c0,0.1,0.1,0.2,0.2,0.2l9.5,0.1c0.1,0,0.3,0.1,0.3,0.3l0,9.9
	c0,0.1-0.1,0.3-0.3,0.3h-9.3c-0.1,0-0.3,0.1-0.3,0.3l0.1,9.4c0,0.1-0.1,0.3-0.3,0.3h-10c-0.1,0-0.2-0.1-0.3-0.2l-0.1-9.6
	C1051,360.2,1050.9,360.1,1050.7,360.1z"/>
<circle class="st10" cx="1140" cy="353.4" r="7.1"/>
<circle class="st10" cx="1162.9" cy="353.4" r="7.1"/>
<circle class="st10" cx="1151.5" cy="364.9" r="7"/>
</svg>
