<?xml version="1.0" standalone="no"?>
<!DOCTYPE svg PUBLIC "-//W3C//DTD SVG 20010904//EN"
 "http://www.w3.org/TR/2001/REC-SVG-20010904/DTD/svg10.dtd">
<svg version="1.0" xmlns="http://www.w3.org/2000/svg"
 width="2780.000000pt" height="2780.000000pt" viewBox="0 0 2780.000000 2780.000000"
 preserveAspectRatio="xMidYMid meet">
<metadata>
Created by potrace 1.14, written by Peter Selinger 2001-2017
</metadata>
<g transform="translate(0.000000,2780.000000) scale(0.100000,-0.100000)"
fill="#000000" stroke="none">
<path d="M23387 16804 c-3 -3 -63 -8 -134 -10 -70 -2 -148 -7 -173 -9 -25 -3
-52 -6 -60 -6 -18 -1 -125 -17 -160 -24 -14 -3 -38 -7 -55 -10 -267 -45 -593
-166 -856 -317 -71 -41 -277 -184 -350 -244 -94 -77 -284 -264 -344 -338 -22
-27 -45 -54 -50 -60 -19 -20 -151 -210 -171 -246 -10 -19 -21 -37 -24 -40 -11
-11 -89 -163 -133 -260 -33 -72 -75 -189 -69 -194 3 -3 -1 -6 -8 -6 -7 0 -11
-3 -7 -6 3 -4 0 -22 -8 -40 -8 -19 -11 -34 -8 -34 3 0 0 -7 -7 -15 -7 -8 -9
-15 -6 -15 4 0 2 -8 -3 -17 -5 -10 -11 -31 -14 -48 -11 -56 -18 -89 -22 -95
-3 -5 -27 -139 -40 -220 -10 -69 -17 -140 -20 -228 -3 -53 -5 -99 -5 -102 -6
-28 6 -343 15 -390 2 -14 7 -45 10 -70 13 -101 18 -129 37 -215 32 -146 34
-156 66 -250 36 -108 81 -223 98 -250 7 -11 13 -24 13 -28 0 -9 131 -260 140
-267 4 -3 22 -30 41 -60 19 -30 43 -67 54 -81 12 -14 32 -40 46 -59 14 -18 31
-39 38 -46 6 -7 12 -15 12 -17 0 -10 76 -93 180 -197 101 -101 159 -153 245
-219 22 -17 45 -34 50 -39 21 -16 132 -91 190 -128 57 -35 294 -161 305 -161
3 0 21 -7 40 -16 86 -40 351 -126 435 -141 17 -3 41 -8 55 -11 112 -25 135
-28 365 -50 39 -4 72 -9 75 -12 3 -3 5 -220 5 -483 0 -263 3 -481 5 -483 5 -5
97 -10 115 -7 6 1 13 2 17 2 10 -2 222 -1 239 0 15 1 16 45 15 485 -1 422 1
484 14 488 8 2 44 7 80 10 36 3 88 8 115 12 28 3 57 7 65 8 8 1 33 5 55 9 22
3 54 8 72 11 18 2 37 6 42 9 5 3 26 8 47 12 20 3 48 10 61 15 13 5 23 7 23 4
0 -2 16 3 35 11 19 8 35 12 35 10 0 -2 24 5 53 15 28 11 61 22 73 25 11 2 54
17 94 34 40 16 78 30 85 30 7 0 18 7 25 15 7 8 21 15 31 15 9 0 24 6 31 13 7
7 18 14 23 15 14 3 139 65 145 72 3 3 32 21 64 39 33 18 66 39 74 47 7 8 19
14 27 14 7 0 15 3 17 8 2 4 37 32 78 62 41 29 80 59 86 64 7 6 36 31 65 56 53
45 193 183 259 256 122 134 269 356 362 544 70 143 132 290 121 290 -3 0 -1 6
5 13 10 13 49 137 78 252 13 54 27 115 31 140 2 17 9 57 14 90 16 99 23 176
24 247 0 38 2 68 5 68 11 0 0 318 -15 425 -3 22 -8 67 -11 100 -3 33 -8 63
-10 66 -2 3 -6 21 -9 40 -32 184 -111 427 -204 624 -27 58 -49 107 -48 109 1
2 -5 12 -13 22 -9 11 -22 33 -30 49 -8 17 -17 32 -20 35 -3 3 -18 25 -32 50
-37 64 -160 235 -216 299 -62 73 -171 189 -201 215 -13 12 -36 32 -51 46 -64
58 -82 73 -215 173 -47 35 -251 160 -265 162 -3 1 -27 13 -55 27 -56 29 -234
107 -255 113 -3 0 -30 9 -60 20 -30 11 -57 20 -60 20 -3 1 -12 4 -20 8 -19 7
-92 30 -105 33 -32 7 -65 15 -100 24 -70 19 -195 44 -284 56 -19 2 -47 6 -61
9 -33 6 -160 15 -256 20 -40 1 -76 5 -82 8 -5 4 -12 4 -15 1z"/>
<path d="M3867 16794 c-2 -2 -41 -6 -87 -10 -46 -3 -93 -8 -104 -10 -21 -4
-72 -11 -133 -19 -18 -2 -36 -6 -40 -8 -4 -3 -26 -8 -48 -11 -185 -29 -507
-141 -720 -251 -134 -70 -373 -220 -405 -255 -3 -3 -27 -23 -55 -45 -27 -21
-60 -49 -72 -62 -12 -13 -24 -23 -27 -23 -20 0 -266 -272 -326 -360 -13 -19
-27 -37 -30 -40 -11 -10 -110 -167 -110 -175 0 -5 -6 -16 -14 -24 -33 -37
-188 -379 -201 -444 -2 -9 -6 -21 -9 -25 -3 -5 -8 -19 -11 -33 -3 -13 -19 -75
-35 -137 -33 -124 -68 -344 -77 -487 -7 -103 -7 -400 1 -460 2 -22 7 -69 11
-105 5 -60 12 -105 15 -105 1 0 3 -16 5 -35 11 -100 56 -288 96 -404 12 -32
22 -63 23 -70 1 -6 10 -29 20 -51 10 -22 21 -49 25 -60 15 -42 117 -243 151
-295 19 -31 40 -63 45 -72 37 -60 80 -118 87 -118 4 0 8 -6 8 -12 0 -7 13 -27
28 -45 15 -18 34 -41 42 -51 82 -107 313 -341 382 -387 8 -5 57 -42 109 -81
119 -89 200 -140 342 -212 110 -58 349 -157 360 -150 1 1 12 -4 25 -11 13 -7
31 -14 40 -16 39 -9 278 -69 292 -73 8 -3 22 -6 30 -7 76 -10 128 -18 145 -22
11 -2 43 -6 70 -8 28 -3 73 -6 100 -9 64 -5 399 -6 445 -1 40 5 161 16 205 20
17 1 30 3 30 4 0 2 18 5 40 7 56 7 283 54 309 64 11 5 35 12 51 16 36 9 34 8
68 22 16 7 32 12 37 12 17 0 162 60 264 110 124 60 242 130 355 212 105 77
114 84 214 180 72 68 79 79 67 93 -28 34 -218 225 -224 225 -3 0 -21 -15 -40
-32 -48 -47 -81 -74 -160 -135 -39 -29 -75 -57 -81 -61 -38 -29 -144 -94 -162
-98 -13 -4 -23 -9 -23 -13 0 -4 -28 -21 -62 -37 -35 -16 -65 -31 -68 -34 -3
-3 -12 -6 -20 -8 -8 -2 -40 -15 -70 -29 -30 -14 -62 -27 -70 -29 -8 -2 -49
-15 -89 -29 -112 -37 -313 -80 -426 -91 -22 -2 -65 -7 -95 -10 -72 -9 -354
-10 -450 -1 -76 7 -89 9 -215 28 -144 22 -408 98 -522 150 -24 10 -45 19 -48
19 -7 0 -139 63 -145 70 -3 3 -25 15 -50 27 -49 25 -51 26 -160 97 -187 121
-406 322 -525 482 -33 44 -63 81 -67 82 -5 2 -6 8 -2 13 3 5 1 9 -4 9 -4 0
-19 19 -32 43 -13 23 -26 44 -29 47 -3 3 -13 19 -21 35 -8 17 -18 32 -21 35
-15 12 -145 303 -153 341 -2 8 -6 21 -9 29 -18 47 -47 152 -47 169 0 11 -5 23
-10 26 -6 4 -8 10 -6 14 3 4 1 23 -4 42 -13 48 -20 87 -25 134 -2 22 -6 50 -9
63 -7 33 -19 222 -19 317 0 82 11 276 17 312 3 11 7 42 11 69 3 27 12 78 19
114 8 36 12 68 9 73 -2 4 0 7 5 7 5 0 9 6 9 13 1 22 11 61 34 132 13 39 23 72
24 75 1 3 5 14 9 25 5 11 14 37 22 57 21 57 57 137 113 246 20 40 122 203 145
233 12 15 30 39 40 53 11 15 28 37 38 49 128 150 226 246 348 341 47 36 92 71
101 78 17 14 20 16 144 90 44 26 85 51 90 56 6 4 13 9 18 10 4 1 32 13 62 27
31 14 60 25 65 25 6 0 10 4 10 8 0 5 15 13 33 19 17 6 69 24 115 41 45 16 82
28 82 25 0 -3 6 -1 13 5 6 5 68 24 137 41 125 31 154 37 226 46 22 3 50 7 64
10 132 28 559 27 725 -1 81 -14 171 -32 205 -41 14 -3 32 -8 40 -10 39 -10 45
-12 45 -13 0 -1 11 -3 25 -6 14 -2 32 -7 40 -11 8 -3 17 -7 20 -8 6 -2 27 -10
115 -42 67 -25 269 -119 290 -136 6 -4 44 -29 85 -54 91 -57 223 -156 268
-200 74 -74 70 -74 161 16 44 43 96 98 117 120 l37 42 -54 52 c-65 62 -136
124 -175 152 -15 11 -32 25 -38 31 -14 13 -163 114 -170 114 -2 0 -34 18 -70
40 -36 22 -70 40 -76 40 -5 0 -10 5 -10 12 0 6 -3 8 -6 5 -4 -3 -16 0 -28 8
-11 8 -27 15 -35 15 -8 0 -22 6 -30 14 -15 12 -233 95 -296 111 -16 5 -34 9
-40 11 -46 13 -139 36 -160 40 -11 1 -31 6 -45 9 -53 13 -104 22 -175 30 -65
8 -95 14 -105 20 -5 3 -10 1 -10 -5 0 -6 -5 -8 -10 -5 -6 4 -30 9 -53 11 -47
6 -456 12 -460 8z"/>
<path d="M7201 16755 c-4 -5 -7 -82 -7 -170 l1 -160 108 -5 c60 -3 116 -2 125
1 9 4 21 4 26 1 12 -7 95 -6 103 1 3 4 14 2 25 -4 13 -7 23 -7 32 0 7 6 15 8
18 6 3 -3 381 -8 839 -10 459 -3 854 -6 879 -9 54 -4 132 -14 180 -23 19 -3
44 -7 55 -8 11 -2 31 -6 45 -9 72 -17 109 -26 145 -36 22 -6 47 -13 55 -15 8
-2 15 -4 15 -5 0 -1 7 -3 15 -5 75 -15 390 -175 390 -197 0 -4 6 -8 13 -8 6 0
35 -21 62 -46 28 -25 57 -51 65 -57 35 -27 127 -137 169 -202 97 -150 173
-350 197 -520 3 -22 8 -53 10 -70 10 -66 11 -334 3 -400 -5 -38 -11 -84 -13
-101 -2 -16 -6 -40 -10 -51 -4 -12 -9 -31 -11 -42 -3 -12 -7 -29 -9 -39 -11
-49 -62 -181 -90 -236 -48 -90 -77 -140 -86 -146 -4 -3 -9 -10 -11 -16 -12
-33 -141 -170 -211 -225 -23 -18 -45 -36 -48 -39 -19 -22 -293 -174 -308 -170
-1 0 -18 -6 -37 -14 -36 -16 -233 -72 -275 -80 -14 -2 -65 -11 -115 -20 -49
-8 -109 -17 -133 -19 -23 -3 -45 -7 -49 -10 -3 -4 -14 -2 -24 3 -10 6 -20 6
-23 2 -5 -9 -303 -12 -1451 -15 l-670 -2 0 -1017 c0 -560 2 -1019 5 -1019 13
-4 347 -7 360 -3 14 3 15 100 15 836 0 458 1 842 3 853 3 21 7 21 855 22 720
1 982 4 982 13 0 1 16 3 35 5 19 2 54 6 77 10 38 6 46 3 68 -22 13 -15 25 -33
25 -40 0 -6 4 -13 8 -15 5 -2 41 -50 81 -107 40 -57 78 -110 84 -117 30 -33
35 -42 30 -48 -3 -3 2 -8 11 -12 9 -3 16 -11 16 -18 0 -6 11 -23 25 -38 14
-15 25 -30 25 -33 0 -3 44 -66 98 -140 147 -204 275 -383 294 -413 10 -15 25
-38 35 -51 16 -21 147 -203 173 -241 41 -58 185 -260 202 -283 12 -15 42 -57
68 -95 l46 -67 212 -1 c136 -1 212 2 212 8 0 8 -58 92 -98 143 -10 13 -94 133
-107 153 -13 20 -21 32 -43 59 -9 11 -23 29 -30 40 -42 61 -306 432 -320 450
-23 30 -164 231 -177 251 -5 10 -13 19 -16 22 -3 3 -27 37 -54 75 -27 39 -53
71 -57 73 -5 2 -8 8 -8 13 0 6 -5 15 -11 22 -5 7 -48 66 -95 132 -47 66 -92
129 -100 140 -8 11 -40 56 -71 100 -32 44 -63 86 -70 93 -7 7 -13 20 -13 28 0
8 -4 14 -10 14 -24 0 -7 18 23 25 38 9 29 7 97 29 30 10 70 24 88 32 47 21 95
41 112 48 31 13 151 82 170 99 11 9 24 17 28 17 9 0 136 101 187 150 159 150
279 327 375 555 12 28 50 142 54 163 1 9 6 24 9 32 3 8 8 29 11 45 12 59 16
80 21 101 35 158 35 465 0 674 -19 109 -21 116 -35 170 -7 25 -13 50 -14 55
-1 6 -4 15 -7 20 -4 6 -12 28 -18 50 -13 43 -15 47 -60 147 -17 37 -31 72 -31
78 0 5 -4 10 -10 10 -5 0 -10 5 -10 10 0 14 -84 142 -134 205 -48 60 -186 199
-240 240 -21 17 -45 36 -52 43 -7 6 -17 12 -23 12 -6 0 -11 4 -11 9 0 5 -13
14 -30 21 -16 7 -30 16 -30 19 0 4 -20 18 -45 30 -24 12 -47 26 -50 32 -4 5
-15 9 -25 9 -10 0 -20 4 -22 8 -7 19 -344 154 -385 155 -7 0 -13 4 -13 9 0 5
-4 7 -9 4 -4 -3 -23 -1 -42 5 -19 6 -45 12 -59 15 -14 3 -32 7 -40 9 -15 4
-71 15 -100 20 -8 1 -31 5 -50 9 -19 3 -53 8 -75 10 -22 3 -40 5 -40 6 0 3
-106 10 -210 15 -60 2 -110 5 -110 5 0 1 -438 2 -973 3 -650 2 -976 -1 -981
-8z"/>
<path d="M12574 16755 c-2 -5 -3 -1180 -2 -2610 l3 -2600 175 0 c96 -1 181 1
187 3 10 3 12 556 12 2601 0 1429 -4 2602 -7 2607 -10 13 -363 12 -368 -1z"/>
<path d="M13894 16759 c-5 -9 -7 -330 -2 -335 3 -3 263 -5 318 -3 8 1 44 1 80
0 36 0 72 0 80 0 8 1 44 1 80 0 36 0 72 0 80 0 8 1 44 1 80 0 36 0 72 0 80 0
8 1 44 1 80 0 36 0 72 0 80 0 8 1 44 1 80 0 36 0 72 0 80 0 15 1 94 0 215 -2
33 -1 67 -1 75 0 8 0 71 0 140 0 69 -1 132 -1 140 0 41 2 174 -1 180 -4 3 -2
6 -1098 6 -2434 -1 -1614 2 -2431 9 -2432 58 -7 358 -2 364 6 4 6 7 1102 6
2437 l0 2428 200 0 c110 1 207 1 215 1 8 1 116 1 240 0 124 0 232 0 240 0 8 1
116 1 240 0 124 0 234 0 245 0 11 0 125 0 254 0 129 -1 236 1 239 3 4 4 6 273
3 326 -1 13 -237 15 -2062 15 -1133 0 -2063 -3 -2065 -6z"/>
<path d="M18971 16760 c-11 -7 -20 -60 -10 -60 5 0 4 -11 -1 -25 -5 -13 -5
-27 -1 -29 5 -3 5 -23 1 -45 -4 -22 -4 -45 1 -52 4 -7 3 -21 -2 -30 -6 -12 -5
-20 1 -24 6 -4 8 -10 5 -15 -8 -14 -9 -165 -1 -179 4 -6 3 -11 -3 -11 -8 0 -8
-20 -1 -40 1 -3 2 -9 1 -14 -5 -28 -3 -165 3 -175 4 -6 3 -11 -3 -11 -10 0 -9
-25 1 -35 3 -4 3 -19 -2 -34 -4 -16 -4 -34 0 -42 5 -7 6 -17 3 -23 -9 -13 -9
-66 -1 -66 4 0 3 -13 -2 -29 -4 -15 -4 -34 0 -42 5 -7 6 -17 3 -23 -8 -13 -10
-67 -2 -72 4 -2 3 -21 -1 -43 -4 -22 -4 -45 1 -52 4 -7 3 -21 -2 -30 -6 -12
-5 -20 1 -24 6 -4 8 -10 5 -15 -8 -14 -9 -165 -1 -179 4 -6 3 -11 -3 -11 -8 0
-8 -20 -1 -40 1 -3 2 -9 1 -14 -5 -28 -3 -165 3 -175 4 -6 3 -11 -3 -11 -9 0
-9 -25 0 -35 3 -3 3 -25 -1 -50 -4 -24 -3 -50 1 -57 4 -6 3 -20 -2 -29 -6 -12
-5 -20 1 -24 6 -4 8 -10 5 -15 -8 -14 -9 -165 -1 -179 4 -6 3 -11 -3 -11 -8 0
-8 -20 -1 -40 1 -3 2 -9 1 -14 -5 -28 -3 -165 3 -175 4 -6 3 -11 -3 -11 -10 0
-9 -25 1 -35 3 -4 3 -19 -2 -34 -4 -16 -4 -34 0 -42 5 -7 6 -17 3 -23 -9 -13
-9 -66 -1 -66 4 0 3 -13 -2 -29 -4 -15 -4 -34 0 -42 5 -7 6 -17 3 -23 -8 -13
-10 -67 -2 -72 4 -2 3 -21 -1 -43 -4 -22 -4 -45 1 -52 4 -7 3 -21 -2 -30 -6
-12 -5 -20 1 -24 6 -4 8 -10 5 -15 -8 -14 -9 -165 -1 -179 4 -6 3 -11 -3 -11
-8 0 -8 -20 -1 -40 1 -3 2 -9 1 -14 -5 -28 -3 -165 3 -175 4 -6 3 -11 -3 -11
-10 0 -9 -25 1 -35 3 -4 3 -19 -2 -34 -4 -16 -4 -34 0 -42 5 -7 6 -17 3 -23
-9 -13 -9 -66 -1 -66 4 0 3 -13 -2 -29 -4 -15 -4 -34 0 -42 5 -7 6 -17 3 -23
-8 -13 -10 -67 -2 -72 4 -2 3 -21 -1 -43 -4 -22 -4 -45 1 -52 4 -7 3 -21 -2
-30 -6 -12 -5 -20 1 -24 6 -4 8 -10 5 -15 -8 -14 -9 -165 -1 -179 4 -6 3 -11
-3 -11 -8 0 -8 -20 -1 -40 1 -3 2 -9 1 -14 -5 -28 -3 -165 3 -175 4 -6 3 -11
-3 -11 -9 0 -9 -25 0 -35 3 -3 3 -25 -1 -50 -4 -24 -3 -50 1 -57 4 -6 3 -20
-2 -29 -6 -12 -5 -20 1 -24 6 -4 8 -10 5 -15 -8 -14 -9 -165 -1 -179 4 -6 3
-11 -3 -11 -8 0 -8 -20 -1 -40 1 -3 2 -9 1 -14 -5 -28 -3 -165 3 -175 4 -6 3
-11 -3 -11 -10 0 -9 -25 1 -35 3 -4 3 -19 -2 -34 -4 -16 -4 -34 0 -42 5 -7 6
-17 3 -23 -8 -12 -10 -67 -2 -71 3 -2 3 -27 -1 -55 -4 -27 -3 -50 1 -50 4 0 6
-8 4 -19 -3 -18 6 -19 181 -19 117 0 186 4 190 10 9 15 9 5197 0 5206 -8 8
-353 10 -365 2z"/>
</g>
</svg>
